<svg width="20" height="20" viewBox="0 0 20 20" fill="none" xmlns="http://www.w3.org/2000/svg">
<circle cx="10" cy="10" r="9.5" fill="white" stroke="#FA1DFF" style="fill:white;fill-opacity:1;stroke:#FA1DFF;stroke:color(display-p3 0.9823 0.1142 1.0000);stroke-opacity:1;"/>
<foreignObject x="3.22363" y="4.28516" width="13.606" height="13.6064"><div xmlns="http://www.w3.org/1999/xhtml" style="backdrop-filter:blur(2px);clip-path:url(#bgblur_0_3030_1557_clip_path);height:100%;width:100%"></div></foreignObject><circle data-figma-bg-blur-radius="4" cx="10.0266" cy="11.0881" r="2.80298" fill="url(#paint0_linear_3030_1557)" style=""/>
<foreignObject x="-1.55273" y="0.0634766" width="23.1055" height="21.9365"><div xmlns="http://www.w3.org/1999/xhtml" style="backdrop-filter:blur(3px);clip-path:url(#bgblur_1_3030_1557_clip_path);height:100%;width:100%"></div></foreignObject><path data-figma-bg-blur-radius="6" fill-rule="evenodd" clip-rule="evenodd" d="M9.99979 15.9971C9.95048 15.9632 4.98368 11.6767 4.55189 10.0169C4.11615 8.34182 5.08121 6.62008 6.70741 6.17125C7.98383 5.81896 9.28818 6.3556 10.0009 7.41276C10.7141 6.35737 12.0173 5.82193 13.2927 6.17392C14.9189 6.62275 15.8839 8.34449 15.4482 10.0195C15.0124 11.6946 9.95835 16.0445 10.0002 15.9996C10.0002 15.9996 10 15.9988 9.99979 15.9971Z" fill="url(#paint1_linear_3030_1557)" fill-opacity="0.3" style=""/>
<defs>
<clipPath id="bgblur_0_3030_1557_clip_path" transform="translate(-3.22363 -4.28516)"><circle cx="10.0266" cy="11.0881" r="2.80298"/>
</clipPath><clipPath id="bgblur_1_3030_1557_clip_path" transform="translate(1.55273 -0.0634766)"><path fill-rule="evenodd" clip-rule="evenodd" d="M9.99979 15.9971C9.95048 15.9632 4.98368 11.6767 4.55189 10.0169C4.11615 8.34182 5.08121 6.62008 6.70741 6.17125C7.98383 5.81896 9.28818 6.3556 10.0009 7.41276C10.7141 6.35737 12.0173 5.82193 13.2927 6.17392C14.9189 6.62275 15.8839 8.34449 15.4482 10.0195C15.0124 11.6946 9.95835 16.0445 10.0002 15.9996C10.0002 15.9996 10 15.9988 9.99979 15.9971Z"/>
</clipPath><linearGradient id="paint0_linear_3030_1557" x1="10.1668" y1="13.6108" x2="10.1668" y2="8.28516" gradientUnits="userSpaceOnUse">
<stop stop-color="#FB5CFE" style="stop-color:#FB5CFE;stop-color:color(display-p3 0.9832 0.3626 0.9958);stop-opacity:1;"/>
<stop offset="0.961458" stop-color="#FB5CFE" stop-opacity="0.68" style="stop-color:#FB5CFE;stop-color:color(display-p3 0.9832 0.3626 0.9958);stop-opacity:0.68;"/>
</linearGradient>
<linearGradient id="paint1_linear_3030_1557" x1="14.8849" y1="6.58113" x2="3.12695" y2="13.1329" gradientUnits="userSpaceOnUse">
<stop stop-color="#FA00FF" stop-opacity="0.5" style="stop-color:#FA00FF;stop-color:color(display-p3 0.9800 0.0000 1.0000);stop-opacity:0.5;"/>
<stop offset="1" stop-color="#BD00FF" style="stop-color:#BD00FF;stop-color:color(display-p3 0.7412 0.0000 1.0000);stop-opacity:1;"/>
</linearGradient>
</defs>
</svg>
